# xmcd
#
# Track frame offsets:
#	150
#	19672
#	37380
#	57252
#	76915
#	97210
#	117807
#	135990
#	150712
#	171307
#	193165
#	212180
#
# Disc length: 3095
#
# Revision: 2
# Processed by: cddbd v1.5.1PL0 Copyright (c) Steve Scherf et al.
# Submitted via: CDex 1.50
# Normalized: r1:DSETVAR1,TDELIM( - )
#
DISCID=a80c150c
DTITLE=Various Artist - 90's R&B
DYEAR=2002
DGENRE=R&B
TTITLE0=Next - Too CLose
TTITLE1=Monica - The First Night
TTITLE2=Tony Rich Project - Nobody Knows
TTITLE3=Deborah Cox - Nobody Supposed To Be Here
TTITLE4=Sylk E - Romeo And Juliet
TTITLE5=Rome - I Belong To You
TTITLE6=Donell Jones - U Know What's Up
TTITLE7=Az Yet - Hard To Say I'm Sorry
TTITLE8=Kevon Edmunds - 24-7
TTITLE9=Tyrese - Sweet Lady
TTITLE10=SWV - Rain
TTITLE11=Aretha Franklin - A Rose Is Still A Rose
EXTD=YEAR: 2002
EXTT0=
EXTT1=
EXTT2=
EXTT3=
EXTT4=
EXTT5=
EXTT6=
EXTT7=
EXTT8=
EXTT9=
EXTT10=
EXTT11=
PLAYORDER=
